<svg width="30" height="30" viewBox="0 0 30 30" fill="none" xmlns="http://www.w3.org/2000/svg">
<path d="M4.97124 12.3C5.02152 11.6735 5.30593 11.0889 5.76783 10.6627C6.22973 10.2365 6.83523 9.99987 7.46374 10H22.5362C23.1647 9.99987 23.7702 10.2365 24.2321 10.6627C24.694 11.0889 24.9785 11.6735 25.0287 12.3L26.0325 24.8C26.0601 25.144 26.0162 25.49 25.9035 25.8162C25.7909 26.1423 25.6119 26.4417 25.3779 26.6953C25.1438 26.9489 24.8599 27.1514 24.5438 27.2899C24.2277 27.4283 23.8863 27.4999 23.5412 27.5H6.45874C6.11364 27.4999 5.7723 27.4283 5.45621 27.2899C5.14012 27.1514 4.85612 26.9489 4.62211 26.6953C4.38809 26.4417 4.20911 26.1423 4.09645 25.8162C3.98379 25.49 3.93988 25.144 3.96749 24.8L4.97124 12.3V12.3Z" stroke="black" stroke-width="2" stroke-linecap="round" stroke-linejoin="round"/>
<path d="M20 13.75V7.5C20 6.17392 19.4732 4.90215 18.5355 3.96447C17.5979 3.02678 16.3261 2.5 15 2.5C13.6739 2.5 12.4021 3.02678 11.4645 3.96447C10.5268 4.90215 10 6.17392 10 7.5V13.75" stroke="black" stroke-width="2" stroke-linecap="round" stroke-linejoin="round"/>
</svg>
