<svg width="18" height="18" viewBox="0 0 18 18" fill="none" xmlns="http://www.w3.org/2000/svg">
<path d="M3 4V15C3 15.5304 3.21071 16.0391 3.58579 16.4142C3.96086 16.7893 4.46957 17 5 17H13C13.5304 17 14.0391 16.7893 14.4142 16.4142C14.7893 16.0391 15 15.5304 15 15V4M6 4C6 3.20435 6.31607 2.44129 6.87868 1.87868C7.44129 1.31607 8.20435 1 9 1V1C9.79565 1 10.5587 1.31607 11.1213 1.87868C11.6839 2.44129 12 3.20435 12 4V4H6ZM6 4H12H6ZM6 4H3H6ZM12 4H15H12ZM17 4H15H17ZM1 4H3H1Z" stroke="black" stroke-width="2" stroke-linecap="round" stroke-linejoin="round"/>
</svg>
