<svg width="26" height="26" viewBox="0 0 26 26" fill="none" xmlns="http://www.w3.org/2000/svg">
<path d="M5.25 6.75H22.4875C22.8368 6.75001 23.1822 6.82321 23.5014 6.96488C23.8207 7.10655 24.1067 7.31354 24.3411 7.57252C24.5754 7.83149 24.7529 8.1367 24.8621 8.46847C24.9713 8.80024 25.0098 9.15121 24.975 9.49875L24.225 16.9988C24.1633 17.6156 23.8746 18.1876 23.415 18.6036C22.9553 19.0196 22.3575 19.25 21.7375 19.25H9.8C9.22184 19.2502 8.66147 19.0501 8.21431 18.6836C7.76714 18.3171 7.46082 17.8069 7.3475 17.24L5.25 6.75Z" stroke="black" stroke-width="2" stroke-linejoin="round"/>
<path d="M19 24.25H21.5M5.25 6.75L4.2375 2.69625C4.16979 2.42594 4.01369 2.18601 3.79401 2.01457C3.57433 1.84313 3.30366 1.75001 3.025 1.75H1.5L5.25 6.75ZM9 24.25H11.5H9Z" stroke="black" stroke-width="2" stroke-linecap="round" stroke-linejoin="round"/>
</svg>
