<svg width="170" height="36" viewBox="0 0 170 36" fill="none" xmlns="http://www.w3.org/2000/svg">
<path d="M38.26 11.48C38.26 10.98 38.43 10.59 38.77 10.31C39.13 10.03 39.55 9.89 40.03 9.89C40.51 9.89 40.92 10.03 41.26 10.31C41.6 10.57 41.77 10.95 41.77 11.45V20.57C41.77 22.29 41.39 23.81 40.63 25.13C39.89 26.45 38.84 27.48 37.48 28.22C36.12 28.94 34.54 29.3 32.74 29.3C30.94 29.3 29.36 28.94 28 28.22C26.64 27.48 25.58 26.45 24.82 25.13C24.08 23.81 23.71 22.29 23.71 20.57V11.39C23.71 10.91 23.88 10.54 24.22 10.28C24.56 10.02 24.97 9.89 25.45 9.89C25.95 9.89 26.37 10.02 26.71 10.28C27.07 10.54 27.25 10.92 27.25 11.42V20.57C27.25 22.23 27.75 23.58 28.75 24.62C29.75 25.64 31.07 26.15 32.71 26.15C34.37 26.15 35.71 25.64 36.73 24.62C37.75 23.58 38.26 22.23 38.26 20.57V11.48ZM53.6137 9.89C55.4137 9.89 56.9937 10.29 58.3537 11.09C59.7337 11.89 60.8037 13.01 61.5637 14.45C62.3237 15.89 62.7037 17.56 62.7037 19.46C62.7037 21.36 62.3237 23.03 61.5637 24.47C60.8037 25.91 59.7337 27.03 58.3537 27.83C56.9937 28.61 55.4137 29 53.6137 29H47.4337C46.8937 29 46.4237 28.83 46.0237 28.49C45.6437 28.13 45.4537 27.71 45.4537 27.23V11.63C45.4537 11.15 45.6437 10.74 46.0237 10.4C46.4237 10.06 46.8937 9.89 47.4337 9.89H53.6137ZM53.6137 26.03C54.7337 26.03 55.7137 25.76 56.5537 25.22C57.4137 24.68 58.0737 23.91 58.5337 22.91C59.0137 21.91 59.2537 20.76 59.2537 19.46C59.2537 18.16 59.0137 17.01 58.5337 16.01C58.0737 14.99 57.4137 14.21 56.5537 13.67C55.6937 13.11 54.7137 12.83 53.6137 12.83H48.8737V26.03H53.6137ZM64.3605 12.11C64.2605 11.87 64.2105 11.66 64.2105 11.48C64.2105 11.04 64.3905 10.67 64.7505 10.37C65.1305 10.05 65.5605 9.89 66.0405 9.89C66.4205 9.89 66.7305 9.96 66.9705 10.1C67.2305 10.24 67.4405 10.48 67.6005 10.82L74.2005 23.48L80.6805 10.88C80.8405 10.56 81.0505 10.32 81.3105 10.16C81.5905 9.98 81.8905 9.89 82.2105 9.89C82.6705 9.89 83.0805 10.04 83.4405 10.34C83.8205 10.62 84.0105 10.99 84.0105 11.45C84.0105 11.71 83.9405 11.98 83.8005 12.26L75.7605 28.07C75.6005 28.35 75.3805 28.58 75.1005 28.76C74.8205 28.92 74.5205 29 74.2005 29C73.8605 29 73.5405 28.92 73.2405 28.76C72.9605 28.6 72.7405 28.35 72.5805 28.01L64.3605 12.11ZM87.1183 21.59C86.5583 21.59 86.1283 21.44 85.8283 21.14C85.5283 20.84 85.3783 20.49 85.3783 20.09C85.3783 19.67 85.5283 19.31 85.8283 19.01C86.1483 18.71 86.5783 18.56 87.1183 18.56H92.8183C93.3783 18.56 93.8083 18.71 94.1083 19.01C94.4283 19.31 94.5883 19.67 94.5883 20.09C94.5883 20.49 94.4283 20.84 94.1083 21.14C93.8083 21.44 93.3783 21.59 92.8183 21.59H87.1183ZM96.3353 25.43C96.2953 25.27 96.2753 25.14 96.2753 25.04C96.2753 24.62 96.4553 24.27 96.8153 23.99C97.1953 23.71 97.6053 23.57 98.0453 23.57C98.4053 23.57 98.7253 23.68 99.0053 23.9C99.2853 24.1 99.4953 24.41 99.6353 24.83C99.7953 25.33 100.235 25.71 100.955 25.97C101.695 26.23 102.515 26.36 103.415 26.36C104.495 26.36 105.365 26.17 106.025 25.79C106.685 25.39 107.015 24.89 107.015 24.29C107.015 23.73 106.715 23.36 106.115 23.18C105.515 23 104.575 22.86 103.295 22.76C101.795 22.62 100.585 22.45 99.6653 22.25C98.7653 22.03 97.9953 21.61 97.3553 20.99C96.7353 20.37 96.4253 19.45 96.4253 18.23C96.4253 17.27 96.7053 16.43 97.2653 15.71C97.8253 14.99 98.6153 14.43 99.6353 14.03C100.655 13.63 101.835 13.43 103.175 13.43C106.815 13.43 109.055 14.52 109.895 16.7C109.955 16.88 109.985 17.04 109.985 17.18C109.985 17.64 109.795 18.01 109.415 18.29C109.055 18.57 108.655 18.71 108.215 18.71C107.855 18.71 107.555 18.64 107.315 18.5C107.075 18.36 106.885 18.12 106.745 17.78C106.325 16.86 105.135 16.4 103.175 16.4C102.175 16.4 101.365 16.57 100.745 16.91C100.145 17.25 99.8453 17.7 99.8453 18.26C99.8453 18.78 100.025 19.12 100.385 19.28C100.745 19.42 101.375 19.53 102.275 19.61C102.655 19.61 103.055 19.64 103.475 19.7C105.095 19.88 106.335 20.08 107.195 20.3C108.075 20.5 108.835 20.91 109.475 21.53C110.115 22.15 110.435 23.07 110.435 24.29C110.435 25.27 110.135 26.14 109.535 26.9C108.955 27.66 108.135 28.25 107.075 28.67C106.015 29.09 104.795 29.3 103.415 29.3C101.755 29.3 100.255 29.03 98.9153 28.49C97.5753 27.93 96.7153 26.91 96.3353 25.43ZM120.25 26.15C120.61 25.97 120.94 25.88 121.24 25.88C121.66 25.88 122.01 26.03 122.29 26.33C122.59 26.61 122.74 26.95 122.74 27.35C122.74 27.63 122.65 27.9 122.47 28.16C122.31 28.4 122.07 28.61 121.75 28.79C121.33 29.01 120.95 29.15 120.61 29.21C120.29 29.27 119.85 29.3 119.29 29.3C116.07 29.3 114.46 27.42 114.46 23.66V16.58H113.32C112.8 16.58 112.39 16.44 112.09 16.16C111.81 15.88 111.67 15.55 111.67 15.17C111.67 14.79 111.81 14.46 112.09 14.18C112.39 13.88 112.8 13.73 113.32 13.73H114.46V11.15C114.46 10.67 114.62 10.29 114.94 10.01C115.28 9.73 115.68 9.59 116.14 9.59C116.6 9.59 117 9.73 117.34 10.01C117.68 10.29 117.85 10.67 117.85 11.15V13.73H120.19C120.69 13.73 121.08 13.88 121.36 14.18C121.66 14.46 121.81 14.79 121.81 15.17C121.81 15.55 121.66 15.88 121.36 16.16C121.08 16.44 120.69 16.58 120.19 16.58H117.85V23.66C117.85 24.48 117.94 25.14 118.12 25.64C118.32 26.12 118.71 26.36 119.29 26.36C119.61 26.36 119.93 26.29 120.25 26.15ZM131.478 13.43C133.058 13.43 134.448 13.77 135.648 14.45C136.868 15.11 137.808 16.05 138.468 17.27C139.128 18.47 139.458 19.86 139.458 21.44C139.438 23 139.088 24.38 138.408 25.58C137.748 26.76 136.818 27.68 135.618 28.34C134.418 28.98 133.038 29.3 131.478 29.3C129.918 29.3 128.538 28.98 127.338 28.34C126.138 27.68 125.198 26.76 124.518 25.58C123.858 24.38 123.518 23 123.498 21.44C123.498 19.86 123.828 18.47 124.488 17.27C125.168 16.05 126.108 15.11 127.308 14.45C128.508 13.77 129.898 13.43 131.478 13.43ZM131.478 26.3C132.818 26.3 133.898 25.85 134.718 24.95C135.538 24.05 135.948 22.88 135.948 21.44C135.948 19.96 135.538 18.76 134.718 17.84C133.898 16.9 132.818 16.43 131.478 16.43C130.138 16.43 129.058 16.9 128.238 17.84C127.418 18.76 127.008 19.96 127.008 21.44C127.008 22.88 127.418 24.05 128.238 24.95C129.058 25.85 130.138 26.3 131.478 26.3ZM148.782 13.73C149.342 13.73 149.772 13.85 150.072 14.09C150.392 14.33 150.552 14.7 150.552 15.2C150.552 15.68 150.392 16.06 150.072 16.34C149.752 16.62 149.322 16.76 148.782 16.76C147.562 16.76 146.682 17.19 146.142 18.05C145.622 18.91 145.362 20.15 145.362 21.77V27.47C145.362 27.91 145.202 28.28 144.882 28.58C144.562 28.86 144.172 29 143.712 29C143.192 29 142.772 28.86 142.452 28.58C142.132 28.3 141.972 27.93 141.972 27.47V15.26C141.972 14.8 142.142 14.43 142.482 14.15C142.842 13.87 143.252 13.73 143.712 13.73C144.152 13.73 144.532 13.87 144.852 14.15C145.192 14.41 145.362 14.78 145.362 15.26V15.44C146.202 14.3 147.342 13.73 148.782 13.73ZM159.076 26.33C160.356 26.33 161.446 25.98 162.346 25.28C162.786 24.9 163.236 24.71 163.696 24.71C164.116 24.71 164.466 24.86 164.746 25.16C165.046 25.46 165.196 25.81 165.196 26.21C165.196 26.67 164.996 27.1 164.596 27.5C163.936 28.14 163.126 28.61 162.166 28.91C161.226 29.19 160.226 29.32 159.166 29.3C157.606 29.3 156.226 28.98 155.026 28.34C153.826 27.7 152.896 26.81 152.236 25.67C151.576 24.51 151.246 23.19 151.246 21.71C151.246 20.07 151.566 18.63 152.206 17.39C152.846 16.13 153.756 15.16 154.936 14.48C156.116 13.78 157.496 13.43 159.076 13.43C161.436 13.43 163.276 14.14 164.596 15.56C165.916 16.98 166.586 18.87 166.606 21.23C166.606 21.83 166.486 22.28 166.246 22.58C166.006 22.88 165.496 23.03 164.716 23.03H154.726C155.006 24.01 155.536 24.81 156.316 25.43C157.096 26.03 158.016 26.33 159.076 26.33ZM159.106 16.4C157.946 16.4 156.976 16.76 156.196 17.48C155.416 18.2 154.916 19.16 154.696 20.36H163.426C163.306 19.12 162.896 18.15 162.196 17.45C161.496 16.75 160.466 16.4 159.106 16.4Z" fill="#00D29D"/>
<path d="M14 8L3 18.5L14 29" stroke="#00D29D" stroke-width="3"/>
</svg>
