<svg width="19" height="19" viewBox="0 0 19 19" fill="none" xmlns="http://www.w3.org/2000/svg">
<path d="M13.8542 11.0833C13.5392 11.0833 13.2372 10.9582 13.0145 10.7355C12.7918 10.5128 12.6667 10.2108 12.6667 9.89583C12.6667 9.58089 12.7918 9.27884 13.0145 9.05614C13.2372 8.83344 13.5392 8.70833 13.8542 8.70833C14.1691 8.70833 14.4712 8.83344 14.6939 9.05614C14.9166 9.27884 15.0417 9.58089 15.0417 9.89583C15.0417 10.2108 14.9166 10.5128 14.6939 10.7355C14.4712 10.9582 14.1691 11.0833 13.8542 11.0833ZM12.6667 13.8542C12.6667 14.1691 12.7918 14.4712 13.0145 14.6939C13.2372 14.9166 13.5392 15.0417 13.8542 15.0417C14.1691 15.0417 14.4712 14.9166 14.6939 14.6939C14.9166 14.4712 15.0417 14.1691 15.0417 13.8542C15.0417 13.5392 14.9166 13.2372 14.6939 13.0145C14.4712 12.7918 14.1691 12.6667 13.8542 12.6667C13.5392 12.6667 13.2372 12.7918 13.0145 13.0145C12.7918 13.2372 12.6667 13.5392 12.6667 13.8542ZM9.5 15.0417C9.18506 15.0417 8.88301 14.9166 8.66031 14.6939C8.43761 14.4712 8.3125 14.1691 8.3125 13.8542C8.3125 13.5392 8.43761 13.2372 8.66031 13.0145C8.88301 12.7918 9.18506 12.6667 9.5 12.6667C9.81495 12.6667 10.117 12.7918 10.3397 13.0145C10.5624 13.2372 10.6875 13.5392 10.6875 13.8542C10.6875 14.1691 10.5624 14.4712 10.3397 14.6939C10.117 14.9166 9.81495 15.0417 9.5 15.0417ZM8.3125 9.89583C8.3125 10.2108 8.43761 10.5128 8.66031 10.7355C8.88301 10.9582 9.18506 11.0833 9.5 11.0833C9.81495 11.0833 10.117 10.9582 10.3397 10.7355C10.5624 10.5128 10.6875 10.2108 10.6875 9.89583C10.6875 9.58089 10.5624 9.27884 10.3397 9.05614C10.117 8.83344 9.81495 8.70833 9.5 8.70833C9.18506 8.70833 8.88301 8.83344 8.66031 9.05614C8.43761 9.27884 8.3125 9.58089 8.3125 9.89583ZM5.14583 11.0833C4.83089 11.0833 4.52884 10.9582 4.30614 10.7355C4.08344 10.5128 3.95833 10.2108 3.95833 9.89583C3.95833 9.58089 4.08344 9.27884 4.30614 9.05614C4.52884 8.83344 4.83089 8.70833 5.14583 8.70833C5.46078 8.70833 5.76282 8.83344 5.98552 9.05614C6.20822 9.27884 6.33333 9.58089 6.33333 9.89583C6.33333 10.2108 6.20822 10.5128 5.98552 10.7355C5.76282 10.9582 5.46078 11.0833 5.14583 11.0833ZM19 3.95833C19 2.90852 18.583 1.9017 17.8406 1.15937C17.0983 0.417037 16.0915 0 15.0417 0H3.95833C2.90852 0 1.9017 0.417037 1.15937 1.15937C0.417037 1.9017 0 2.90852 0 3.95833V15.0417C0 16.0915 0.417037 17.0983 1.15937 17.8406C1.9017 18.583 2.90852 19 3.95833 19H15.0417C16.0915 19 17.0983 18.583 17.8406 17.8406C18.583 17.0983 19 16.0915 19 15.0417V3.95833ZM15.0417 1.58333C15.6716 1.58333 16.2756 1.83356 16.721 2.27895C17.1664 2.72435 17.4167 3.32844 17.4167 3.95833V4.75H1.58333V3.95833C1.58333 3.32844 1.83356 2.72435 2.27895 2.27895C2.72435 1.83356 3.32844 1.58333 3.95833 1.58333H15.0417ZM17.4167 15.0417C17.4167 15.6716 17.1664 16.2756 16.721 16.721C16.2756 17.1664 15.6716 17.4167 15.0417 17.4167H3.95833C3.32844 17.4167 2.72435 17.1664 2.27895 16.721C1.83356 16.2756 1.58333 15.6716 1.58333 15.0417V6.33333H17.4167V15.0417Z" fill="#00B98A"/>
</svg>