<svg
   xmlns:dc="http://purl.org/dc/elements/1.1/"
   xmlns:cc="http://creativecommons.org/ns#"
   xmlns:rdf="http://www.w3.org/1999/02/22-rdf-syntax-ns#"
   xmlns:svg="http://www.w3.org/2000/svg"
   xmlns="http://www.w3.org/2000/svg"
   xmlns:sodipodi="http://sodipodi.sourceforge.net/DTD/sodipodi-0.dtd"
   xmlns:inkscape="http://www.inkscape.org/namespaces/inkscape"
   version="1.1"
   id="svg2"
   xml:space="preserve"
   width="220"
   height="88"
   viewBox="0 0 220 88"
   sodipodi:docname="лого.eps"><metadata
     id="metadata8"><rdf:RDF><cc:Work
         rdf:about=""><dc:format>image/svg+xml</dc:format><dc:type
           rdf:resource="http://purl.org/dc/dcmitype/StillImage" /></cc:Work></rdf:RDF></metadata><defs
     id="defs6" /><sodipodi:namedview
     pagecolor="#ffffff"
     bordercolor="#666666"
     borderopacity="1"
     objecttolerance="10"
     gridtolerance="10"
     guidetolerance="10"
     inkscape:pageopacity="0"
     inkscape:pageshadow="2"
     inkscape:window-width="640"
     inkscape:window-height="480"
     id="namedview4" /><g
     id="g10"
     inkscape:groupmode="layer"
     inkscape:label="ink_ext_XXXXXX"
     transform="matrix(1.3333333,0,0,-1.3333333,0,88)"><g
       id="g12"
       transform="scale(0.1)"><path
         d="M 23.2227,374.43 278.871,630.086 c 26.867,26.863 70.824,26.863 97.688,0 L 632.211,374.434 c 26.863,-26.864 26.863,-70.821 -0.004,-97.684 L 376.559,21.0977 c -26.864,-26.86723 -70.821,-26.86723 -97.688,0 L 23.2227,276.746 c -26.86333,26.863 -26.86723,70.82 0,97.684 z M 48.6914,349.223 304.086,604.617 c 12.996,13 34.266,13 47.262,0 L 606.746,349.223 c 12.996,-13 12.996,-34.266 -0.004,-47.266 L 351.348,46.5625 c -13,-12.9961 -34.266,-12.9961 -47.262,0.0039 L 48.6914,301.957 c -13,13 -13,34.266 0,47.266"
         style="fill:#00d29d;fill-opacity:1;fill-rule:evenodd;stroke:none"
         id="path14" /><path
         d="m 975.199,451.484 c 0,5.137 1.571,9.055 4.707,11.762 3.133,2.711 6.981,4.067 11.547,4.067 4.277,0 7.985,-1.356 11.117,-4.067 3.14,-2.707 4.71,-6.484 4.71,-11.332 V 310.336 c 0,-26.231 -5.99,-48.688 -17.967,-67.363 -11.973,-18.68 -27.586,-32.723 -46.836,-42.129 -19.243,-9.41 -39.704,-14.117 -61.375,-14.117 -21.672,0 -42.133,4.707 -61.375,14.117 -19.25,9.406 -34.86,23.449 -46.836,42.129 -11.977,18.675 -17.965,41.132 -17.965,67.363 v 142.859 c 0,4.563 1.566,8.055 4.707,10.481 3.133,2.422 6.84,3.637 11.117,3.637 4.563,0 8.414,-1.286 11.547,-3.852 3.137,-2.563 4.707,-6.129 4.707,-10.691 V 310.336 c 0,-19.676 4.418,-36.496 13.258,-50.469 8.84,-13.972 20.461,-24.523 34.859,-31.648 14.402,-7.129 29.727,-10.696 45.981,-10.696 16.253,0 31.578,3.567 45.976,10.696 14.406,7.125 26.024,17.676 34.863,31.648 8.84,13.973 13.258,30.793 13.258,50.469 v 141.148"
         style="fill:#00d29d;fill-opacity:1;fill-rule:nonzero;stroke:none"
         id="path16" /><path
         d="m 975.199,451.484 c 0,5.137 1.571,9.055 4.707,11.762 3.133,2.711 6.981,4.067 11.547,4.067 4.277,0 7.985,-1.356 11.117,-4.067 3.14,-2.707 4.71,-6.484 4.71,-11.332 V 310.336 c 0,-26.231 -5.99,-48.688 -17.967,-67.363 -11.973,-18.68 -27.586,-32.723 -46.836,-42.129 -19.243,-9.41 -39.704,-14.117 -61.375,-14.117 -21.672,0 -42.133,4.707 -61.375,14.117 -19.25,9.406 -34.86,23.449 -46.836,42.129 -11.977,18.675 -17.965,41.132 -17.965,67.363 v 142.859 c 0,4.563 1.566,8.055 4.707,10.481 3.133,2.422 6.84,3.637 11.117,3.637 4.563,0 8.414,-1.286 11.547,-3.852 3.137,-2.563 4.707,-6.129 4.707,-10.691 V 310.336 c 0,-19.676 4.418,-36.496 13.258,-50.469 8.84,-13.972 20.461,-24.523 34.859,-31.648 14.402,-7.129 29.727,-10.696 45.981,-10.696 16.253,0 31.578,3.567 45.976,10.696 14.406,7.125 26.024,17.676 34.863,31.648 8.84,13.973 13.258,30.793 13.258,50.469 z"
         style="fill:none;stroke:#09d49e;stroke-width:5.25483;stroke-linecap:butt;stroke-linejoin:miter;stroke-miterlimit:22.9256;stroke-dasharray:none;stroke-opacity:1"
         id="path18" /><path
         d="m 1190.26,466.5 c 18.63,0 35.81,-3.758 51.57,-11.277 15.76,-7.52 27.58,-18.266 35.46,-32.231 v 106.899 c 0,5.73 1.97,10.293 5.91,13.699 3.94,3.402 8.59,5.105 13.96,5.105 5.38,0 9.95,-1.703 13.7,-5.105 3.76,-3.406 5.64,-7.969 5.64,-13.699 V 208.648 c 0,-5.73 -1.79,-10.293 -5.37,-13.695 -3.58,-3.402 -8.42,-5.105 -14.5,-5.105 -12.18,0 -18.27,6.269 -18.27,18.8 v 22.028 c -8.59,-15.758 -20.95,-27.399 -37.06,-34.918 -16.12,-7.52 -33.13,-11.281 -51.04,-11.281 -25.42,0 -48.52,5.64 -69.3,16.921 -20.76,11.282 -37.33,27.668 -49.68,49.153 -12.36,21.488 -18.54,47.273 -18.54,77.355 0,20.414 4.57,41.274 13.7,62.582 9.13,21.309 23.99,39.309 44.59,53.989 20.59,14.683 47,22.023 79.23,22.023 z m 3.22,-244.957 c 24,1.43 43.97,9.488 59.9,24.172 15.94,14.687 23.91,34.203 23.91,58.555 v 42.437 c 0,23.281 -8.06,42.617 -24.18,58.02 -16.11,15.398 -36.52,23.632 -61.23,24.711 -24.72,0 -44.5,-5.465 -59.36,-16.383 -14.87,-10.926 -25.34,-24.086 -31.43,-39.489 -6.09,-15.398 -9.13,-30.082 -9.13,-44.05 0,-25.782 5.37,-46.735 16.11,-62.848 10.75,-16.117 23.91,-27.664 39.49,-34.648 15.58,-6.985 30.89,-10.477 45.92,-10.477"
         style="fill:#00d29d;fill-opacity:1;fill-rule:nonzero;stroke:none"
         id="path20" /><path
         d="m 1354.37,442.281 c -0.74,1.473 -1.1,3.672 -1.1,6.61 0,5.504 2.2,10.089 6.61,13.761 4.4,3.668 9.53,5.504 15.41,5.504 3.67,0 7.06,-0.914 10.18,-2.754 3.12,-1.832 5.41,-4.586 6.88,-8.254 L 1497.5,247.41 1603.74,457.695 c 1.47,3.305 3.76,5.875 6.88,7.707 3.12,1.84 6.52,2.754 10.18,2.754 5.14,0 9.82,-1.558 14.04,-4.676 4.22,-3.121 6.34,-7.253 6.34,-12.386 0,-1.836 -0.56,-4.223 -1.66,-7.156 L 1515.11,196.766 c -1.83,-4.039 -4.5,-7.157 -7.98,-9.36 -3.49,-2.203 -7.07,-3.301 -10.74,-3.301 -6.97,0 -12.84,4.032 -17.61,12.106 l -124.41,246.07"
         style="fill:#00d29d;fill-opacity:1;fill-rule:nonzero;stroke:none"
         id="path22" /><path
         d="m 326.012,265.121 c 4.519,-4.527 6.781,-9.234 6.781,-14.137 0,-5.277 -2.07,-9.89 -6.219,-13.847 -4.144,-3.957 -8.855,-5.942 -14.133,-5.942 -4.898,0 -9.796,2.078 -14.699,6.223 l -97.234,94.41 c -6.031,4.899 -9.043,10.172 -9.043,15.824 0,6.411 3.203,12.438 9.609,18.09 l 97.801,93.844 c 4.523,4.898 9.797,7.352 15.828,7.352 4.902,0 9.235,-1.793 13.004,-5.372 3.77,-3.582 5.652,-7.82 5.652,-12.718 0,-4.524 -2.261,-9.422 -6.785,-14.7 l -91.015,-85.929 90.453,-83.098"
         style="fill:#09d49e;fill-opacity:1;fill-rule:nonzero;stroke:none"
         id="path24" /><path
         d="m 329.422,218.164 c -4.524,-4.523 -6.785,-9.234 -6.785,-14.133 0,-5.281 2.074,-9.894 6.218,-13.851 4.145,-3.957 8.856,-5.938 14.133,-5.938 4.899,0 9.797,2.074 14.7,6.223 l 97.234,94.406 c 6.027,4.899 9.047,10.172 9.047,15.824 0,6.41 -3.203,12.442 -9.614,18.094 l -97.8,93.844 c -4.524,4.898 -9.797,7.347 -15.828,7.347 -4.899,0 -9.235,-1.789 -13,-5.371 -3.774,-3.578 -5.653,-7.82 -5.653,-12.718 0,-4.52 2.258,-9.422 6.781,-14.7 l 91.016,-85.929 -90.449,-83.098"
         style="fill:#09d49e;fill-opacity:1;fill-rule:nonzero;stroke:none"
         id="path26" /></g></g></svg>
