<svg width="69" height="83" viewBox="0 0 69 83" fill="none" xmlns="http://www.w3.org/2000/svg">
<path d="M55.0752 24.4017H8.09836C4.75037 24.4017 3.11238 27.3279 3.1844 30.1912M3.1844 30.1912C3.25338 32.9339 4.89138 35.6188 8.09836 35.6188H59C62.866 35.6188 66 38.7528 66 42.6188V72.4017C66 76.2677 62.866 79.4017 59 79.4017H10.0263C6.15004 79.4017 3.0118 76.2517 3.02633 72.3755L3.1844 30.1912Z" stroke="#302E2E" stroke-width="6" stroke-linecap="round"/>
<circle cx="50.3497" cy="57.8035" r="3.67052" fill="#302E2E"/>
<path d="M31.0607 36.1474H22.9855H14.9104C14.9104 36.1474 14.9104 28.4393 22.9855 28.4393C31.0607 28.4393 31.0607 36.1474 31.0607 36.1474Z" fill="#302E2E"/>
<circle cx="43.0751" cy="21.0751" r="8.07514" fill="#302E2E"/>
<circle cx="23.0751" cy="8.07514" r="8.07514" fill="#302E2E"/>
</svg>
