<svg width="69" height="61" viewBox="0 0 69 61" fill="none" xmlns="http://www.w3.org/2000/svg">
<path d="M61.7995 3H48.9655L50.5729 18.2778C50.5729 18.2778 53.7879 21.3334 58.6103 21.3334C61.1418 21.3365 63.5873 20.4607 65.4871 18.8706C65.6879 18.6922 65.8375 18.4682 65.9219 18.2195C66.0063 17.9709 66.0226 17.706 65.9693 17.4497L63.6995 4.52778C63.6236 4.1009 63.3912 3.71333 63.0435 3.4337C62.6957 3.15408 62.255 3.00044 61.7995 3V3Z" stroke="#302E2E" stroke-width="5"/>
<path d="M48.9655 3L50.573 18.2778C50.573 18.2778 47.3581 21.3334 42.5357 21.3334C37.7132 21.3334 34.4983 18.2778 34.4983 18.2778V3H48.9655Z" stroke="#302E2E" stroke-width="5"/>
<path d="M34.4983 3V18.2778C34.4983 18.2778 31.2834 21.3334 26.4609 21.3334C21.6385 21.3334 18.4236 18.2778 18.4236 18.2778L20.0311 3H34.4983Z" stroke="#302E2E" stroke-width="5"/>
<path d="M20.031 3H7.20018C6.74364 2.99984 6.30184 3.15358 5.95335 3.43388C5.60485 3.71418 5.37226 4.10288 5.29693 4.53084L3.0304 17.4528C2.97742 17.7091 2.99389 17.9739 3.07825 18.2225C3.16261 18.471 3.31209 18.6951 3.51264 18.8736C4.56714 19.7597 6.92369 21.3364 10.3862 21.3364C15.2086 21.3364 18.4235 18.2809 18.4235 18.2809L20.031 3.00306V3Z" stroke="#302E2E" stroke-width="5"/>
<path d="M5.5863 21.3333V51.8889C5.5863 53.5096 6.26374 55.064 7.46957 56.2101C8.67541 57.3561 10.3109 58 12.0162 58H57.0254C58.7307 58 60.3662 57.3561 61.572 56.2101C62.7779 55.064 63.4553 53.5096 63.4553 51.8889V21.3333" stroke="#302E2E" stroke-width="5"/>
<path d="M43.6287 58V39.6667C43.6287 38.0459 42.9512 36.4915 41.7454 35.3454C40.5395 34.1994 38.9041 33.5555 37.1988 33.5555H30.7689C29.0636 33.5555 27.4281 34.1994 26.2223 35.3454C25.0164 36.4915 24.339 38.0459 24.339 39.6667V58" stroke="#302E2E" stroke-width="5" stroke-miterlimit="16"/>
</svg>